<svg xmlns="http://www.w3.org/2000/svg" viewBox="0 0 209.02 53.36"><defs><style>.cls-1{fill:#188dc2;}</style></defs><g id="Layer_2" data-name="Layer 2"><g id="Layer_1-2" data-name="Layer 1"><path d="M58.17,11.07a8.07,8.07,0,0,0-1.67-.35,5.71,5.71,0,0,0,2.39-1.11,4,4,0,0,0,1.34-3.23,4.25,4.25,0,0,0-.69-2.51,4,4,0,0,0-2-1.46,9.4,9.4,0,0,0-3.16-.47H51.76l-5.39.13V3.91l1.89.52v13.1l-1.89.54v1.84H54a10.52,10.52,0,0,0,3.81-.59,4.79,4.79,0,0,0,2.31-1.71,4.6,4.6,0,0,0,.78-2.7,4,4,0,0,0-.72-2.49A4,4,0,0,0,58.17,11.07Zm-3-6.35a2,2,0,0,1,1,.72,2.34,2.34,0,0,1,.39,1.45,2.47,2.47,0,0,1-.46,1.57,2.43,2.43,0,0,1-1.24.81,6.29,6.29,0,0,1-1.75.23h-1.2v-5h1.76A5.07,5.07,0,0,1,55.14,4.72Zm1.57,11.54a2.38,2.38,0,0,1-1.25.82,6.53,6.53,0,0,1-1.79.23H51.91V12.05h2.4a4.25,4.25,0,0,1,1.41.23,2.15,2.15,0,0,1,1,.8,2.71,2.71,0,0,1,.41,1.57A2.53,2.53,0,0,1,56.71,16.26Z"/><path d="M63.54,15.75a4.46,4.46,0,0,0,1.15,3.36,4,4,0,0,0,2.86,1.11,6.51,6.51,0,0,0,2.61-.61,9.24,9.24,0,0,0,2.24-1.48l.38,2,4.49-.2V18.07l-1.71-.53V6.18l-5.26.18V8.19L72,8.71v7.5a5.63,5.63,0,0,1-1.39.93,3.74,3.74,0,0,1-1.52.37,1.87,1.87,0,0,1-1.43-.57,2.54,2.54,0,0,1-.54-1.78v-9l-5.26.18V8.19l1.69.52Z"/><polygon points="85.39 18.07 83.68 17.59 83.68 6.18 78.39 6.36 78.39 8.19 80.1 8.67 80.1 17.59 78.39 18.07 78.39 19.91 85.39 19.91 85.39 18.07"/><path d="M81.79,4.19a2.19,2.19,0,0,0,1.49-.53,2,2,0,0,0,.6-1.57A2,2,0,0,0,83.3.52,2.17,2.17,0,0,0,81.81,0,2.2,2.2,0,0,0,80.3.52a2,2,0,0,0-.6,1.6,2,2,0,0,0,.57,1.53A2.12,2.12,0,0,0,81.79,4.19Z"/><polygon points="93.31 18.07 91.59 17.59 91.59 0.05 86.33 0.26 86.33 2.09 88.02 2.56 88.02 17.59 86.33 18.07 86.33 19.91 93.31 19.91 93.31 18.07"/><path d="M96.41,19.44a4.52,4.52,0,0,0,2.62.78,5.16,5.16,0,0,0,2.34-.55,8.62,8.62,0,0,0,1.95-1.39l.38,1.81,4.49-.2V18.07l-1.71-.53V.05l-5.41.21V2.07l1.84.6V6.09L102.4,6c-.37,0-.75,0-1.12,0A7.49,7.49,0,0,0,95.89,7.8C94.61,9,94,10.88,94,13.4a9.4,9.4,0,0,0,.65,3.73A5.17,5.17,0,0,0,96.41,19.44Zm2.12-9.7a3,3,0,0,1,2.64-1.21,7.53,7.53,0,0,1,1.74.22V16.5a6.08,6.08,0,0,1-1.1.72,3.09,3.09,0,0,1-1.4.37A2,2,0,0,1,99,17,3.7,3.7,0,0,1,98,15.47a7.82,7.82,0,0,1-.33-2.4A5.86,5.86,0,0,1,98.53,9.74Z"/><path d="M111.73,19.44a6.65,6.65,0,0,0,3.27.78,9.82,9.82,0,0,0,3-.5,11.43,11.43,0,0,0,3-1.52l-1.2-1.91a10.64,10.64,0,0,1-2.1.95,6,6,0,0,1-1.88.32,3.06,3.06,0,0,1-2-.61,3.41,3.41,0,0,1-1.08-1.68,7.47,7.47,0,0,1-.28-1.48H121c0-.33.09-.63.11-.92a8.44,8.44,0,0,0,0-.87,7.76,7.76,0,0,0-.58-3.08,4.79,4.79,0,0,0-1.84-2.16A6.07,6.07,0,0,0,115.49,6a6.76,6.76,0,0,0-3.55.9,5.94,5.94,0,0,0-2.34,2.54,8.68,8.68,0,0,0-.83,3.94,8.31,8.31,0,0,0,.78,3.77A5.33,5.33,0,0,0,111.73,19.44ZM113.6,9.13a2.2,2.2,0,0,1,1.6-.58,2,2,0,0,1,1.37.44,2.39,2.39,0,0,1,.71,1.21,5.09,5.09,0,0,1,.19,1.47h-5a6.1,6.1,0,0,1,.2-1A3.12,3.12,0,0,1,113.6,9.13Z"/><path d="M129.17,6.62a10.21,10.21,0,0,0-1.9,1.49l-.37-2-4.49.21V8.19l1.71.52v8.88l-1.71.48v1.84h7.4V18.07l-2.12-.49V10.17a4.33,4.33,0,0,1,1.06-.9,2.89,2.89,0,0,1,1.57-.49l.32,0,.07,0L131,11h2.07l.23-4.72A6.62,6.62,0,0,0,131.57,6,4.75,4.75,0,0,0,129.17,6.62Z"/><path d="M140.22,17.67a4.53,4.53,0,0,1-1.24.17,7.33,7.33,0,0,1-1.07-.09,7.06,7.06,0,0,1-.87-.17l-.23-1.88h-2.25l-.15,3.85c.8.21,1.58.37,2.33.49a13.87,13.87,0,0,0,2.16.18,9.25,9.25,0,0,0,3.17-.51,5,5,0,0,0,2.22-1.53,4,4,0,0,0,.81-2.53,3.34,3.34,0,0,0-.51-1.92,3.72,3.72,0,0,0-1.31-1.18,9.26,9.26,0,0,0-1.71-.73l-1.71-.54a4.78,4.78,0,0,1-1.32-.61,1.1,1.1,0,0,1-.51-.94,1.16,1.16,0,0,1,.58-1,2.82,2.82,0,0,1,1.52-.37,7.15,7.15,0,0,1,1.72.24l.32,1.57h2.27l.13-3.42a20.48,20.48,0,0,0-2.4-.54A13.55,13.55,0,0,0,140,6a8.12,8.12,0,0,0-2.72.44,4.22,4.22,0,0,0-2,1.36,3.8,3.8,0,0,0-.74,2.42,3.54,3.54,0,0,0,.51,2,3.77,3.77,0,0,0,1.32,1.22,7.87,7.87,0,0,0,1.68.74l1.69.54a4.85,4.85,0,0,1,1.31.61,1.2,1.2,0,0,1,.14,1.85A2.46,2.46,0,0,1,140.22,17.67Z"/><path d="M58.17,38.33A8.8,8.8,0,0,0,56.5,38a5.71,5.71,0,0,0,2.39-1.11,4,4,0,0,0,1.34-3.23,4.31,4.31,0,0,0-.69-2.52,4,4,0,0,0-2-1.45,9.15,9.15,0,0,0-3.16-.47H51.76l-5.39.12v1.84l1.89.53V44.79l-1.89.55v1.84H54a10.74,10.74,0,0,0,3.81-.59,4.79,4.79,0,0,0,2.31-1.71,4.62,4.62,0,0,0,.78-2.7,4,4,0,0,0-.72-2.49A4,4,0,0,0,58.17,38.33Zm-3-6.34a2,2,0,0,1,1,.71,2.39,2.39,0,0,1,.39,1.46,2.49,2.49,0,0,1-.46,1.57,2.42,2.42,0,0,1-1.24.8,5.94,5.94,0,0,1-1.75.23h-1.2v-5h1.76A4.75,4.75,0,0,1,55.14,32Zm1.57,11.54a2.44,2.44,0,0,1-1.25.82,6.53,6.53,0,0,1-1.79.23H51.91V39.32h2.4a4,4,0,0,1,1.41.23,2.15,2.15,0,0,1,1,.8,2.68,2.68,0,0,1,.41,1.57A2.53,2.53,0,0,1,56.71,43.53Z"/><path d="M75.56,33.44l-5.26.18v1.84L72,36v7.51a5.63,5.63,0,0,1-1.39.93,3.74,3.74,0,0,1-1.52.37,1.84,1.84,0,0,1-1.43-.58,2.5,2.5,0,0,1-.54-1.77v-9l-5.26.18v1.84l1.69.51V43a4.43,4.43,0,0,0,1.15,3.35,3.91,3.91,0,0,0,2.86,1.12,6.36,6.36,0,0,0,2.61-.62A8.91,8.91,0,0,0,72.4,45.4l.38,2,4.49-.21V45.34l-1.71-.53Z"/><path d="M85.49,35.49l1.49.3-2.4,7.77L81.9,35.67l1.53-.41V33.44l-6.36.21v1.84l1.25.3L83,47.31a14,14,0,0,1-.75,1.62A3.79,3.79,0,0,1,81,50.31a3.44,3.44,0,0,1-1.83.44l-.65,0-.75-.08-.33,2.53a12.33,12.33,0,0,0,2,.18,6.37,6.37,0,0,0,2.41-.42,5.34,5.34,0,0,0,1.81-1.23,8.51,8.51,0,0,0,1.39-2,19.73,19.73,0,0,0,1.15-2.63l4.15-11.5,1.19-.37V33.44l-6,.21Z"/><path d="M95.79,31.45a2.17,2.17,0,0,0,1.49-.52,2,2,0,0,0,.6-1.57,2,2,0,0,0-.58-1.57,2.14,2.14,0,0,0-1.48-.52,2.21,2.21,0,0,0-1.52.52,2.39,2.39,0,0,0,0,3.13A2.14,2.14,0,0,0,95.79,31.45Z"/><polygon points="97.68 33.45 92.4 33.62 92.4 35.46 94.11 35.93 94.11 44.85 92.4 45.34 92.4 47.18 99.39 47.18 99.39 45.34 97.68 44.85 97.68 33.45"/><path d="M114.22,37.61a4.23,4.23,0,0,0-1.12-3.28,4,4,0,0,0-2.89-1.09,6.61,6.61,0,0,0-2.63.6,8,8,0,0,0-2.24,1.51L105,33.42l-4.49.2v1.84l1.71.51v8.88l-1.71.49v1.84h6.81V45.34l-1.53-.46V37.27a6,6,0,0,1,1.38-.94,3.54,3.54,0,0,1,1.51-.38,1.89,1.89,0,0,1,1.44.58,2.63,2.63,0,0,1,.55,1.84V44.9l-1.53.44v1.84h6.81V45.34l-1.71-.51Z"/><path d="M128.68,45.93a6.43,6.43,0,0,0-3.91-1h-4.53l.3-2a9.18,9.18,0,0,0,2,.23A6.79,6.79,0,0,0,127,41.81a4.58,4.58,0,0,0,1.66-3.74,4.37,4.37,0,0,0-.2-1.41,4,4,0,0,0-.37-.78l1.57-.32V33.65l-3.82.14a8.25,8.25,0,0,0-3.15-.55,6.93,6.93,0,0,0-4.51,1.34,4.55,4.55,0,0,0-1.62,3.72,4.71,4.71,0,0,0,.67,2.55,4.13,4.13,0,0,0,1.63,1.49c-.24.41-.46.77-.64,1.06s-.42.72-.56,1a3.81,3.81,0,0,0-.28.65,1.79,1.79,0,0,0-.08.49,1.35,1.35,0,0,0,.62,1.15,2.34,2.34,0,0,0,.47.25,5.41,5.41,0,0,0-1.43,1,2.84,2.84,0,0,0-.88,2.13,2.69,2.69,0,0,0,1.56,2.5,10.17,10.17,0,0,0,4.74.85,11.11,11.11,0,0,0,5.68-1.16A3.73,3.73,0,0,0,130,48.84,3.42,3.42,0,0,0,128.68,45.93Zm-7.86-9.65a3.1,3.1,0,0,1,3.72,0,2.55,2.55,0,0,1,.62,1.9,2.68,2.68,0,0,1-.67,2,2.59,2.59,0,0,1-1.91.66,2.32,2.32,0,0,1-1.79-.66,2.72,2.72,0,0,1-.61-1.92A2.56,2.56,0,0,1,120.82,36.28Zm4.86,14.14a7.34,7.34,0,0,1-3,.43,6.7,6.7,0,0,1-2.65-.38,1.21,1.21,0,0,1-.85-1.12,2.26,2.26,0,0,1,1.12-1.79h3.86a3.38,3.38,0,0,1,1.76.38,1.33,1.33,0,0,1,.62,1.2A1.38,1.38,0,0,1,125.68,50.42Z"/><path d="M145.93,40.11l1.87.37v3.7a12,12,0,0,1-1.2.33,7.43,7.43,0,0,1-1.51.17A4.18,4.18,0,0,1,141.48,43a7.91,7.91,0,0,1-1.24-4.73,9.55,9.55,0,0,1,.6-3.62,4.71,4.71,0,0,1,1.73-2.2,4.81,4.81,0,0,1,2.7-.74,9.15,9.15,0,0,1,1.74.19c.44.1.88.22,1.32.35l.54,2.6H151l.26-4.57a17.43,17.43,0,0,0-3.23-1A15.24,15.24,0,0,0,145,28.9,9.25,9.25,0,0,0,140.32,30a7.33,7.33,0,0,0-3,3.22,11.51,11.51,0,0,0-1,5.07,11.24,11.24,0,0,0,1,5.05,7.13,7.13,0,0,0,2.93,3.09,8.88,8.88,0,0,0,4.39,1.05,14.64,14.64,0,0,0,3.11-.36,21.26,21.26,0,0,0,3.42-1.07V40.5L153,40V38.09l-7.1.13Z"/><path d="M160.45,33.89a10.55,10.55,0,0,0-1.9,1.49l-.37-2-4.49.2v1.84l1.71.52v8.88l-1.71.48v1.84h7.4V45.34L159,44.85V37.44a5.06,5.06,0,0,1,1.06-.91,3,3,0,0,1,1.57-.48l.32,0,.08,0,.29,2.13h2.07l.23-4.72a6.5,6.5,0,0,0-1.74-.26A4.75,4.75,0,0,0,160.45,33.89Z"/><path d="M172.26,33.24a7.08,7.08,0,0,0-3.65.89,5.87,5.87,0,0,0-2.31,2.54,8.89,8.89,0,0,0-.81,3.95,7.22,7.22,0,0,0,1.65,5.08,6,6,0,0,0,4.66,1.79,7.11,7.11,0,0,0,3.67-.9,5.84,5.84,0,0,0,2.35-2.54,8.71,8.71,0,0,0,.82-3.94A7.08,7.08,0,0,0,177,35,6.14,6.14,0,0,0,172.26,33.24Zm2.34,9.62a3.1,3.1,0,0,1-1,1.56,2.54,2.54,0,0,1-1.65.51,2.33,2.33,0,0,1-2.1-1.06,6.48,6.48,0,0,1-.69-3.43,6.72,6.72,0,0,1,.72-3.51,2.64,2.64,0,0,1,4.31,0,6.29,6.29,0,0,1,.72,3.41A8.25,8.25,0,0,1,174.6,42.86Z"/><path d="M192.88,33.44l-5.26.18v1.84l1.69.51v7.51a5.63,5.63,0,0,1-1.39.93,3.74,3.74,0,0,1-1.52.37A1.84,1.84,0,0,1,185,44.2a2.5,2.5,0,0,1-.54-1.77v-9l-5.26.18v1.84l1.69.51V43A4.43,4.43,0,0,0,182,46.37a3.91,3.91,0,0,0,2.86,1.12,6.36,6.36,0,0,0,2.61-.62,9.09,9.09,0,0,0,2.24-1.47l.38,2,4.49-.21V45.34l-1.71-.53Z"/><path d="M208.37,36.32a5.2,5.2,0,0,0-1.78-2.3,4.46,4.46,0,0,0-2.6-.78,5.28,5.28,0,0,0-2.36.56,10.85,10.85,0,0,0-2,1.36l-.32-1.74-4.49.2v1.84l1.71.52V50.65l-1.71.56v1.84h7.27V51.21l-2-.53V47.24c.31.06.62.12.92.16a9.51,9.51,0,0,0,1.28.09,7.28,7.28,0,0,0,3.53-.83,5.75,5.75,0,0,0,2.36-2.49A9,9,0,0,0,209,40,9.48,9.48,0,0,0,208.37,36.32Zm-3.91,7.41A3,3,0,0,1,201.82,45a7.63,7.63,0,0,1-1.74-.24V37a5.43,5.43,0,0,1,1.1-.72,3.2,3.2,0,0,1,1.4-.36,2,2,0,0,1,1.46.55A3.64,3.64,0,0,1,205,38a7.75,7.75,0,0,1,.33,2.41A5.89,5.89,0,0,1,204.46,43.73Z"/><polygon class="cls-1" points="23.19 24.15 31.8 32.48 31.8 17.05 15.83 17.05 23.19 24.16 23.19 24.15"/><polygon class="cls-1" points="23.19 8.69 31.8 17.02 31.8 1.59 15.83 1.59 23.19 8.7 23.19 8.69"/><polygon class="cls-1" points="8.61 24.15 0 32.48 0 17.05 15.97 17.05 8.61 24.16 8.61 24.15"/><polygon class="cls-1" points="23.19 39.64 31.8 47.97 31.8 32.54 15.83 32.54 23.19 39.65 23.19 39.64"/><polygon class="cls-1" points="8.61 39.64 0 47.97 0 32.54 15.97 32.54 8.61 39.65 8.61 39.64"/><polygon class="cls-1" points="8.61 8.69 0 17.02 0 1.59 15.97 1.59 8.61 8.7 8.61 8.69"/></g></g></svg>